<mxfile host="app.diagrams.net" agent="Mozilla/5.0 (Windows NT 10.0; Win64; x64) AppleWebKit/537.36 (KHTML, like Gecko) Chrome/134.0.0.0 Safari/537.36" version="26.1.3">
  <diagram name="Página-1" id="1aAjVZ23Xjj-8cTikm9p">
    <mxGraphModel dx="24749" dy="17072" grid="1" gridSize="10" guides="1" tooltips="1" connect="1" arrows="1" fold="1" page="1" pageScale="1" pageWidth="827" pageHeight="1169" math="0" shadow="0">
      <root>
        <mxCell id="0" />
        <mxCell id="1" parent="0" />
        <mxCell id="-JXTvGFog8CRMXQT7D89-11" style="edgeStyle=orthogonalEdgeStyle;" edge="1" parent="1" source="-JXTvGFog8CRMXQT7D89-1" target="-JXTvGFog8CRMXQT7D89-2" />
        <mxCell id="-JXTvGFog8CRMXQT7D89-12" style="edgeStyle=orthogonalEdgeStyle;" edge="1" parent="1" source="-JXTvGFog8CRMXQT7D89-2" target="-JXTvGFog8CRMXQT7D89-3" />
        <mxCell id="-JXTvGFog8CRMXQT7D89-13" style="edgeStyle=orthogonalEdgeStyle;" edge="1" parent="1" source="-JXTvGFog8CRMXQT7D89-3" target="-JXTvGFog8CRMXQT7D89-4" />
        <mxCell id="-JXTvGFog8CRMXQT7D89-14" style="edgeStyle=orthogonalEdgeStyle;" edge="1" parent="1" source="-JXTvGFog8CRMXQT7D89-4" target="-JXTvGFog8CRMXQT7D89-5" />
        <mxCell id="-JXTvGFog8CRMXQT7D89-15" style="edgeStyle=orthogonalEdgeStyle;" edge="1" parent="1" source="-JXTvGFog8CRMXQT7D89-5" target="-JXTvGFog8CRMXQT7D89-6" />
        <mxCell id="-JXTvGFog8CRMXQT7D89-16" style="edgeStyle=orthogonalEdgeStyle;" edge="1" parent="1" source="-JXTvGFog8CRMXQT7D89-6" target="-JXTvGFog8CRMXQT7D89-7" />
        <mxCell id="-JXTvGFog8CRMXQT7D89-17" style="edgeStyle=orthogonalEdgeStyle;" edge="1" parent="1" source="-JXTvGFog8CRMXQT7D89-7" target="-JXTvGFog8CRMXQT7D89-8" />
        <mxCell id="-JXTvGFog8CRMXQT7D89-18" style="edgeStyle=orthogonalEdgeStyle;" edge="1" parent="1" source="-JXTvGFog8CRMXQT7D89-8" target="-JXTvGFog8CRMXQT7D89-9" />
        <mxCell id="-JXTvGFog8CRMXQT7D89-19" style="edgeStyle=orthogonalEdgeStyle;" edge="1" parent="1" source="-JXTvGFog8CRMXQT7D89-9" target="-JXTvGFog8CRMXQT7D89-10" />
        <mxCell id="-JXTvGFog8CRMXQT7D89-21" value="Início" style="ellipse;whiteSpace=wrap;fillColor=#D5E8D4" vertex="1" parent="1">
          <mxGeometry x="200" y="50" width="100" height="40" as="geometry" />
        </mxCell>
        <mxCell id="-JXTvGFog8CRMXQT7D89-22" value="Ler Horas e Minutos" style="rectangle;whiteSpace=wrap;fillColor=#FFF2CC" vertex="1" parent="1">
          <mxGeometry x="150" y="120" width="200" height="50" as="geometry" />
        </mxCell>
        <mxCell id="-JXTvGFog8CRMXQT7D89-23" value="Ler Valor por Hora" style="rectangle;whiteSpace=wrap;fillColor=#FFF2CC" vertex="1" parent="1">
          <mxGeometry x="150" y="190" width="200" height="50" as="geometry" />
        </mxCell>
        <mxCell id="-JXTvGFog8CRMXQT7D89-24" value="Converter Minutos para Decimal\nDecimal = Minutos / 60" style="rectangle;whiteSpace=wrap;fillColor=#F8CECC" vertex="1" parent="1">
          <mxGeometry x="150" y="260" width="200" height="50" as="geometry" />
        </mxCell>
        <mxCell id="-JXTvGFog8CRMXQT7D89-25" value="Total de Horas = Horas + Decimal" style="rectangle;whiteSpace=wrap;fillColor=#E1D5E7" vertex="1" parent="1">
          <mxGeometry x="150" y="330" width="200" height="50" as="geometry" />
        </mxCell>
        <mxCell id="-JXTvGFog8CRMXQT7D89-26" value="Valor Normal = Total de Horas * Valor por Hora" style="rectangle;whiteSpace=wrap;fillColor=#D9E1F2" vertex="1" parent="1">
          <mxGeometry x="150" y="400" width="200" height="50" as="geometry" />
        </mxCell>
        <mxCell id="-JXTvGFog8CRMXQT7D89-27" value="Adicional = Valor Normal * 0.70" style="rectangle;whiteSpace=wrap;fillColor=#F8CECC" vertex="1" parent="1">
          <mxGeometry x="150" y="470" width="200" height="50" as="geometry" />
        </mxCell>
        <mxCell id="-JXTvGFog8CRMXQT7D89-28" value="Valor Final = Valor Normal + Adicional" style="rectangle;whiteSpace=wrap;fillColor=#E1D5E7" vertex="1" parent="1">
          <mxGeometry x="150" y="540" width="200" height="50" as="geometry" />
        </mxCell>
        <mxCell id="-JXTvGFog8CRMXQT7D89-29" value="Exibir Valor Final" style="rectangle;whiteSpace=wrap;fillColor=#D9E1F2" vertex="1" parent="1">
          <mxGeometry x="150" y="610" width="200" height="50" as="geometry" />
        </mxCell>
        <mxCell id="-JXTvGFog8CRMXQT7D89-30" value="Fim" style="ellipse;whiteSpace=wrap;fillColor=#D5E8D4" vertex="1" parent="1">
          <mxGeometry x="200" y="680" width="100" height="40" as="geometry" />
        </mxCell>
        <mxCell id="-JXTvGFog8CRMXQT7D89-31" edge="1" parent="1" source="-JXTvGFog8CRMXQT7D89-21" target="-JXTvGFog8CRMXQT7D89-22" />
        <mxCell id="-JXTvGFog8CRMXQT7D89-32" edge="1" parent="1" source="-JXTvGFog8CRMXQT7D89-22" target="-JXTvGFog8CRMXQT7D89-23" />
        <mxCell id="-JXTvGFog8CRMXQT7D89-33" edge="1" parent="1" source="-JXTvGFog8CRMXQT7D89-23" target="-JXTvGFog8CRMXQT7D89-24" />
        <mxCell id="-JXTvGFog8CRMXQT7D89-34" edge="1" parent="1" source="-JXTvGFog8CRMXQT7D89-24" target="-JXTvGFog8CRMXQT7D89-25" />
        <mxCell id="-JXTvGFog8CRMXQT7D89-35" edge="1" parent="1" source="-JXTvGFog8CRMXQT7D89-25" target="-JXTvGFog8CRMXQT7D89-26" />
        <mxCell id="-JXTvGFog8CRMXQT7D89-36" edge="1" parent="1" source="-JXTvGFog8CRMXQT7D89-26" target="-JXTvGFog8CRMXQT7D89-27" />
        <mxCell id="-JXTvGFog8CRMXQT7D89-37" edge="1" parent="1" source="-JXTvGFog8CRMXQT7D89-27" target="-JXTvGFog8CRMXQT7D89-28" />
        <mxCell id="-JXTvGFog8CRMXQT7D89-38" edge="1" parent="1" source="-JXTvGFog8CRMXQT7D89-28" target="-JXTvGFog8CRMXQT7D89-29" />
        <mxCell id="-JXTvGFog8CRMXQT7D89-39" edge="1" parent="1" source="-JXTvGFog8CRMXQT7D89-29" target="-JXTvGFog8CRMXQT7D89-30" />
      </root>
    </mxGraphModel>
  </diagram>
</mxfile>
